Simulation
nRows=15
nColumns=15
endheader
time  TH_x TH_y TH_z SC_y  SC_z  SC_x  AC_y  AC_z  AC_x  GH_y  GH_z  GH_yy  EL_x  PS_y
5.382082397003745  0.000000  0.000000  0.000000  -30.11267847732806  11.650408643500592  16.779014442482175  53.06826952066442  18.07042816552872  13.205319315406964  -2.8395634382946158  63.1541757581428  4.43313004774353  13.470015876229908  120.000000
5.422247191011236  0.000000  0.000000  0.000000  -30.086260097616183  11.560739967383352  16.788527039887207  53.072170585382466  17.99843888476423  12.945827015097192  -2.6506965501555975  63.20186054611914  4.115671365162401  13.490691313083417  120.000000
5.4624119850187265  0.000000  0.000000  0.000000  -29.936618731210775  11.45152982900677  16.652000058261667  53.068301520854895  17.911935066749773  12.604087111153833  -2.4507375884143525  62.99152880152437  3.8847937437414117  13.43107187028233  120.000000
5.502576779026217  0.000000  0.000000  0.000000  -29.663669310682717  11.322443358371522  16.36234169912475  53.06356127279337  17.807170333363377  12.182215901031203  -2.24357879494045  62.50670981150133  3.7303084459694835  13.307220894394279  120.000000
5.542741573033708  0.000000  0.000000  0.000000  -29.271089393131632  11.171844969192135  15.915418929896449  53.065835178992884  17.67945236379566  11.685483848913282  -2.034706805984352  61.73425109687882  3.6393355956983373  13.141269792262268  120.000000
5.582906367041199  0.000000  0.000000  0.000000  -28.76676240957091  10.99673036801316  15.31050406023771  53.08259283223256  17.523107771955573  11.122394761634164  -1.8295473141754874  60.666593966987456  3.599118144108243  12.957440705870106  120.000000
5.623071161048689  0.000000  0.000000  0.000000  -28.163041302944652  10.792827235982877  14.550528009548927  53.119574874734674  17.332016134878554  10.504713359665857  -1.6320575800738182  59.30377799749481  3.5997131577462325  12.77796715087091  120.000000
5.66323595505618  0.000000  0.000000  0.000000  -27.476644832257737  10.555101713568721  13.642510464670917  53.17990229821997  17.10007039761093  9.847189557420917  -1.4438220873818786  57.65492263820131  3.6363858521333206  12.619705794056813  120.000000
5.70340074906367  0.000000  0.000000  0.000000  -26.727977267193854  10.278416869318074  12.597674083958344  53.26391533989503  16.822008203681104  9.167297805015485  -1.2638197460828395  55.73863423976848  3.710718309228497  12.492361297752817  120.000000
5.743565543071161  0.000000  0.000000  0.000000  -25.939948099990026  9.958373266681692  11.431614226963397  53.36951606424695  16.494055151348096  8.484890726730582  -1.0887895160176988  53.582230261838355  3.830751811292716  12.398439445945659  120.000000
5.7837303370786515  0.000000  0.000000  0.000000  -25.1364797585576  9.592288514926148  10.16393514910609  53.492991295723066  16.114814804530425  7.821210394275877  -0.9143883264858059  51.21992053117368  4.010098955568309  12.334619498410452  120.000000
5.823895131086142  0.000000  0.000000  0.000000  -24.34101650222673  9.180168414285616  8.81749341207463  53.6302199706001  15.68573969018679  7.197681397685032  -0.7366347698756793  48.6901084410041  4.266823886479378  12.293591221334069  120.000000
5.864059925093633  0.000000  0.000000  0.000000  -23.5746598848287  8.725040125887991  7.417052617136084  53.777980830109655  15.21103997601506  6.634354032352414  -0.5531922838516193  46.03245902852297  4.6219080087061934  12.266358459378889  120.000000
5.904224719101124  0.000000  0.000000  0.000000  -22.855184646200236  8.232824173248247  5.9878597243486675  53.93487591151473  14.697344516720491  6.149023691794385  -0.36502983633818975  43.28512403909742  5.0983564429243575  12.244121785510535  120.000000
5.944389513108614  0.000000  0.000000  0.000000  -22.196799037518712  7.712397396268216  4.554667253601706  54.10132133616465  14.153273209781553  5.755920412179367  -0.17857032444677945  40.48327052233561  5.720924966997473  12.219461873865516  120.000000
